<svg viewBox="0 0 1024 1024" version="1.1" xmlns="http://www.w3.org/2000/svg" width="144" height="144"><path d="M840.021333 836.010667H183.978667a8.021333 8.021333 0 0 0-8.021334 8.021333v59.989333c0 4.352 3.669333 8.021333 8.021334 8.021334h656.042666a8.021333 8.021333 0 0 0 8.021334-8.021334V843.946667a8.021333 8.021333 0 0 0-8.021334-8.021334z m0-724.053334H183.978667a8.021333 8.021333 0 0 0-8.021334 8.021334v59.989333c0 4.437333 3.669333 8.021333 8.021334 8.021333h656.042666a8.021333 8.021333 0 0 0 8.021334-8.021333v-59.989333a8.021333 8.021333 0 0 0-8.021334-7.936zM610.816 378.026667c5.973333 0 9.386667-6.997333 5.717333-11.690667L515.669333 238.677333a7.168 7.168 0 0 0-11.264 0L403.626667 366.336a7.253333 7.253333 0 0 0 5.632 11.690667h66.730666v267.946666h-62.805333c-5.973333 0-9.386667 6.997333-5.717333 11.690667l100.864 127.573333c2.901333 3.669333 8.533333 3.669333 11.264 0L620.373333 657.664a7.253333 7.253333 0 0 0-5.632-11.690667h-66.730666V378.026667h62.805333z" fill="currentColor" p-id="39896"></path></svg>
