<svg viewBox="0 0 1024 1024" version="1.1" xmlns="http://www.w3.org/2000/svg" width="144" height="144"><path d="M917.333333 820.352a21.333333 21.333333 0 0 1 21.333334 21.333333v21.333334a21.333333 21.333333 0 0 1-21.333334 21.333333h-810.666666a21.333333 21.333333 0 0 1-21.333334-21.333333v-21.333334a21.333333 21.333333 0 0 1 21.333334-21.333333h810.666666z m0-159.488a21.333333 21.333333 0 0 1 21.333334 21.333333v21.333334a21.333333 21.333333 0 0 1-21.333334 21.333333h-810.666666a21.333333 21.333333 0 0 1-21.333334-21.333333v-21.333334a21.333333 21.333333 0 0 1 21.333334-21.333333h810.666666zM377.216 158.890667l2.730667 4.778666 170.453333 351.018667a42.666667 42.666667 0 0 1-74.368 41.642667l-2.432-4.352-37.973333-78.293334H247.466667l-37.973334 78.293334a42.666667 42.666667 0 0 1-52.437333 21.632l-4.608-1.877334a42.666667 42.666667 0 0 1-21.632-52.437333l1.92-4.608 170.453333-351.018667a42.666667 42.666667 0 0 1 74.026667-4.778666zM917.333333 501.333333a21.333333 21.333333 0 0 1 21.333334 21.333334v21.333333a21.333333 21.333333 0 0 1-21.333334 21.333333h-199.722666a21.333333 21.333333 0 0 1-21.333334-21.333333v-21.333333a21.333333 21.333333 0 0 1 21.333334-21.333334H917.333333z m0-159.530666a21.333333 21.333333 0 0 1 21.333334 21.333333v21.333333a21.333333 21.333333 0 0 1-21.333334 21.333334h-199.722666a21.333333 21.333333 0 0 1-21.333334-21.333334v-21.333333a21.333333 21.333333 0 0 1 21.333334-21.333333H917.333333zM341.546667 279.936l-52.650667 108.373333h105.301333l-52.650666-108.373333zM917.333333 182.314667a21.333333 21.333333 0 0 1 21.333334 21.333333v21.333333a21.333333 21.333333 0 0 1-21.333334 21.333334h-248.490666a21.333333 21.333333 0 0 1-21.333334-21.333334v-21.333333a21.333333 21.333333 0 0 1 21.333334-21.333333H917.333333z" fill="currentColor" p-id="20991"></path></svg>
